<?xml version="1.0" standalone="no"?>
<!DOCTYPE svg PUBLIC "-//W3C//DTD SVG 20010904//EN"
 "http://www.w3.org/TR/2001/REC-SVG-20010904/DTD/svg10.dtd">
<svg version="1.0" xmlns="http://www.w3.org/2000/svg"
 width="512.000000pt" height="512.000000pt" viewBox="0 0 512.000000 512.000000"
 preserveAspectRatio="xMidYMid meet">

<g transform="translate(0.000000,512.000000) scale(0.100000,-0.100000)"
fill="#000000" stroke="none">
<path d="M2465 4207 l-1240 -462 -390 -5 c-377 -5 -391 -6 -431 -27 -48 -25
-97 -78 -122 -131 -16 -35 -17 -127 -17 -1482 0 -1355 1 -1447 17 -1482 28
-58 78 -109 133 -134 l50 -24 2095 0 2095 0 50 24 c55 25 105 76 133 134 16
35 17 127 17 1482 0 1355 -1 1447 -17 1482 -28 58 -78 109 -133 134 l-50 24
-1264 0 c-753 0 -1261 4 -1255 9 5 5 376 145 824 311 448 166 833 310 855 321
145 72 97 290 -64 289 -35 -1 -331 -107 -1286 -463z m2075 -2107 l0 -1330
-1980 0 -1980 0 0 1330 0 1330 1980 0 1980 0 0 -1330z"/>
<path d="M1835 3249 c-269 -20 -517 -135 -716 -332 -340 -338 -434 -851 -237
-1292 102 -227 286 -424 510 -545 335 -180 772 -176 1100 11 109 61 199 131
279 217 210 225 312 485 312 792 0 309 -103 571 -311 792 -240 255 -576 383
-937 357z m-55 -1149 l0 -820 -22 0 c-13 0 -59 13 -103 28 l-80 27 0 765 0
765 75 27 c41 15 87 27 103 27 l27 1 0 -820z m435 792 l80 -28 3 -761 2 -761
-65 -26 c-35 -14 -83 -29 -105 -32 l-40 -7 0 822 0 821 23 0 c12 0 58 -13 102
-28z m435 -352 c75 -116 120 -283 120 -440 0 -116 -18 -213 -61 -319 -27 -67
-84 -171 -95 -171 -2 0 -4 221 -4 490 0 270 2 490 4 490 2 0 18 -23 36 -50z
m-1400 -442 c-1 -542 4 -518 -71 -363 -61 125 -81 218 -81 365 0 136 19 233
68 339 28 63 73 141 79 141 3 0 5 -217 5 -482z"/>
<path d="M3481 2843 c-18 -9 -44 -34 -58 -55 -50 -74 -17 -185 66 -222 32 -15
79 -17 391 -14 326 3 357 5 382 22 94 63 93 200 -2 263 -33 23 -36 23 -389 23
-310 0 -360 -3 -390 -17z"/>
<path d="M3780 2259 c-130 -21 -268 -126 -329 -250 -93 -190 -51 -404 106
-551 94 -86 198 -123 332 -116 145 8 261 69 348 183 55 73 84 152 90 251 15
228 -140 432 -366 480 -74 15 -101 16 -181 3z m168 -331 c21 -13 42 -38 54
-65 61 -139 -99 -271 -222 -183 -41 29 -60 70 -60 129 0 42 5 56 32 87 18 20
41 40 52 44 40 16 107 11 144 -12z"/>
</g>
</svg>
